<svg xmlns="http://www.w3.org/2000/svg" width="32" height="32" version="1" id="cinema"><path fill-rule="evenodd" d="M16 0C7.176 0 0 7.176 0 16s7.176 16 16 16 16-7.176 16-16S24.877 0 16 0zM8.924 9.541h.293v2.348H7.455v-.881c0-.822.647-1.467 1.469-1.467zm.88 0h1.587v2.348H9.805V9.54zm2.173 0h1.585v2.348h-1.585V9.54zm2.115 0h1.586v2.348h-1.586V9.54zm2.172 0h1.586v2.348h-1.586V9.54zm2.174 0h1.585v2.348h-1.585V9.54zm2.171 0h1.586v2.348H20.61V9.54zm2.174 0h.293c.822 0 1.469.645 1.469 1.467v.88h-1.762V9.542zM7.455 12.477H24.486v7.34H7.455v-7.34zm7.106 1.173c-.177 0-.293.178-.293.295v4.11c0 .235.236.412.412.295l3.287-2.057c.117-.059.176-.351.058-.469l-.058-.058-3.287-2.057c-.059-.059-.06-.059-.12-.059zm-7.106 6.754h1.762v2.055h-.293a1.453 1.453 0 0 1-1.469-1.467v-.588zm2.35 0h1.586v2.055H9.805v-2.055zm2.172 0h1.585v2.055h-1.585v-2.055zm2.115 0h1.586v2.055h-1.586v-2.055zm2.172 0h1.586v2.055h-1.586v-2.055zm2.174 0h1.585v2.055h-1.585v-2.055zm2.171 0h1.586v2.055H20.61v-2.055zm2.174 0h1.762v.588c0 .822-.647 1.467-1.469 1.467h-.293v-2.055z" clip-rule="evenodd"></path></svg>