<svg xmlns="http://www.w3.org/2000/svg" data-name="Layer 1" viewBox="0 0 512 512" id="face-blowing-a-kiss"><path fill="#fdd402" d="M455,256A219.49388,219.49388,0,0,1,235.5,475.5C114.27,475.5,16,377.23,16,256S114.27,36.5,235.5,36.5C356.72,36.5,455,134.77,455,256Z"></path><path fill="#fbbf13" d="M75.99805,256c0-111.0481,82.469-202.82007,189.5-217.45044a221.36681,221.36681,0,0,0-30-2.04956c-121.22644,0-219.5,98.27344-219.5,219.5s98.27356,219.5,219.5,219.5a221.36681,221.36681,0,0,0,30-2.04956C158.467,458.82007,75.99805,367.0481,75.99805,256Z"></path><circle cx="144.998" cy="177.5" r="28" fill="#74563a"></circle><path fill="#674b34" d="M136.99805,177.5a28.00489,28.00489,0,0,1,18.00012-26.15405,28,28,0,1,0,0,52.3081A28.00514,28.00514,0,0,1,136.99805,177.5Z"></path><path fill="#74563a" d="M353.99805 215a7.49974 7.49974 0 0 1-7.5-7.5 20.5 20.5 0 1 0-41 0 7.5 7.5 0 0 1-15 0 35.5 35.5 0 1 1 71 0A7.49974 7.49974 0 0 1 353.99805 215zM238.99805 327.95605a7.5 7.5 0 0 1 0-15 13.5 13.5 0 1 0 0-27h-28a7.5 7.5 0 0 1 0-15h28a28.5 28.5 0 0 1 0 57z"></path><path fill="#74563a" d="M238.99805,369.95605h-28a7.5,7.5,0,0,1,0-15h28a13.5,13.5,0,1,0,0-27,7.5,7.5,0,0,1,0-15,28.5,28.5,0,0,1,0,57Z"></path><path fill="#fbbf13" d="M434.43994,348.8999A220.45706,220.45706,0,0,1,372.4,427.58008L358.76,368.98l-.74-3.2a39.06677,39.06677,0,1,1,76.1-17.71A3.18247,3.18247,0,0,0,434.43994,348.8999Z"></path><path fill="#e5303e" d="M444.12346,318.07164v0a3.28836,3.28836,0,0,0,3.948,2.45764h0A39.06838,39.06838,0,0,1,494.97681,349.728l0,.00011a39.06832,39.06832,0,0,1-29.19868,46.90528l-3.20285.74518L398.159,412.36591a12,12,0,0,1-14.40715-8.96849l-14.98733-64.41627-.74518-3.20285A39.06838,39.06838,0,0,1,397.21807,288.873l.00011,0A39.06831,39.06831,0,0,1,444.12346,318.07164Z"></path><path fill="#b72732" d="M413.752,403.39746,398.76453,338.9812l-.74524-3.20288a39.07229,39.07229,0,0,1,23.04626-44.92139,38.877,38.877,0,0,0-23.84729-1.984l-.00024.00013a39.06835,39.06835,0,0,0-29.19873,46.90527l.74524,3.20288L383.752,403.39746a12,12,0,0,0,14.407,8.96851l17.9392-4.17383A11.92855,11.92855,0,0,1,413.752,403.39746Z"></path></svg>