<svg xmlns="http://www.w3.org/2000/svg" enable-background="new 0 0 60 60" viewBox="0 0 60 60" id="video"><path d="M50,5.9H10c-2.8,0-5,2.2-5,5v26.4c0,2.8,2.2,5,5,5h40c2.8,0,5-2.2,5-5V10.9C55,8.2,52.8,5.9,50,5.9z M53,37.3
	c0,1.7-1.3,3-3,3H10c-1.7,0-3-1.3-3-3V10.9c0-1.7,1.3-3,3-3h40c1.7,0,3,1.3,3,3V37.3z"></path><path d="M35 22.2L27.7 17c-.7-.5-1.7-.6-2.5-.2-.8.4-1.3 1.2-1.3 2.1v10.3c0 .9.5 1.7 1.3 2.1.3.2.7.3 1.1.3.5 0 1-.1 1.4-.4l7.4-5.1c.6-.4 1-1.2 1-1.9C36.1 23.3 35.7 22.6 35 22.2zM33.9 24.4l-7.4 5.1c-.2.1-.3.1-.4 0-.1 0-.2-.1-.2-.3V19c0-.2.1-.3.2-.3 0 0 .1 0 .2 0 .1 0 .1 0 .2.1l7.4 5.1c.1.1.2.2.2.3C34.1 24.2 34 24.3 33.9 24.4zM10.5 45.5c-.6 0-1 .4-1 1v2.3H6c-.6 0-1 .4-1 1s.4 1 1 1h3.5v2.3c0 .6.4 1 1 1s1-.4 1-1v-2.3H54c.6 0 1-.4 1-1s-.4-1-1-1H11.5v-2.3C11.5 46 11.1 45.5 10.5 45.5z"></path></svg>